<svg width="410" height="1250" viewBox="0 0 410 1250" fill="none" xmlns="http://www.w3.org/2000/svg">
<g clip-path="url(#clip0_32_138)">
<path d="M30.9511 925.141L30.9511 959.319L42.2204 959.319L42.2204 939.426L50.2244 939.426L50.2244 958.665L61.2062 958.665L61.2062 939.426L69.1343 939.426L69.1343 959.319L80.4089 959.319L80.4089 925.141L30.9511 925.141ZM30.9511 875.288L30.9511 914.207L42.5115 914.207L42.5115 892.777L70.0112 913.842L80.4108 913.842L80.4108 875.723L68.8468 875.723L68.8468 895.986L41.8588 875.288L30.9511 875.288ZM51.3146 840.739L69.5718 845.627L69.5718 846.281L51.3146 851.159L51.3146 840.739ZM30.9511 856.627L30.9511 871.281L80.4089 856.411L80.4089 835.491L30.9511 820.696L30.9511 835.346L41.2043 838.043L41.2043 853.857L30.9511 856.627ZM57.5721 789.433L69.8611 789.433L69.8611 795.192C69.8611 799.053 66.8797 801.312 63.7555 801.312C60.6222 801.312 57.5721 799.053 57.5721 795.192L57.5721 789.433ZM30.9511 775.147L30.9511 789.433L48.3332 789.433L48.3332 793.076L30.9511 801.676L30.9511 817.784L46.2215 808.676C47.8252 807.728 49.2734 806.562 49.7127 805.904L50.0056 805.978C51.9691 810.351 55.681 816.547 64.1153 816.547C72.9889 816.547 80.4108 809.48 80.4108 797.888L80.4108 775.149L30.9511 775.147ZM57.5721 738.487L69.7906 738.487L69.7906 744.1C69.7906 747.232 67.1708 750.076 63.6813 750.076C60.1124 750.076 57.5721 747.234 57.5721 744.1L57.5721 738.487ZM30.9511 724.205L30.9511 738.487L46.9501 738.487L46.9501 745.775C46.9501 757.366 54.2978 764.578 63.3903 764.578C72.4827 764.578 80.4108 757.368 80.4108 745.775L80.4108 724.205L30.9511 724.205ZM30.9511 662.4L30.9511 681.933L80.4089 696.799L80.4089 680.766L43.383 672.31L43.383 672.02L80.4089 663.565L80.4089 647.533L30.9511 662.4ZM30.9511 600.812L30.9511 615.098L68.845 615.098L68.845 627.415L80.4089 627.415L80.409 588.426L68.845 588.426L68.845 600.813L30.9511 600.812ZM29.785 558.105C29.785 569.765 35.3844 579.456 49.1993 579.456L80.409 579.456L80.409 565.174L50.5137 565.174C44.9125 565.174 42.4392 562.112 42.4392 558.105C42.4392 554.096 44.9125 551.038 50.5137 551.038L80.409 551.038L80.409 536.75L49.1993 536.75C35.3844 536.75 29.785 546.447 29.785 558.105ZM30.9512 493.605L30.9512 513.139L80.409 528.005L80.409 511.973L43.383 503.518L43.383 503.225L80.409 494.772L80.409 478.739L30.9512 493.605ZM30.1448 458.986C30.1448 464.891 31.6743 469.846 33.1985 472.837L45.6394 472.837C44.1098 469.995 42.8026 466.712 42.8026 461.54C42.8026 456.366 46.7296 448.859 55.6792 448.859C64.6215 448.859 68.8432 455.708 68.8432 462.339C68.8432 466.859 67.8271 469.995 66.4404 472.759L78.7366 472.759C80.0456 469.846 81.0617 466.203 81.0617 460.371C81.0617 445.721 71.4612 433.255 55.6792 433.255C39.8953 433.257 30.1448 444.409 30.1448 458.986ZM83.3922 451.333L83.3922 466.348L94.5927 476.335L94.5927 463.944L89.2067 458.986L89.2067 458.696L94.5927 453.739L94.5927 441.351L83.3922 451.333Z" fill="white"/>
<path d="M125.381 1174.25L143.642 1179.13L143.642 1179.78L125.381 1184.66L125.381 1174.25ZM105.014 1190.13L105.014 1204.78L154.474 1189.91L154.474 1169L105.014 1154.2L105.014 1168.85L115.269 1171.55L115.269 1187.36L105.014 1190.13ZM168.661 1194.29L168.661 1177.67L157.462 1171.91L157.462 1184.01L168.661 1194.29ZM105.014 1154.78L130.547 1138.02L154.474 1154.57L154.474 1137.14L131.711 1123.3L154.474 1123.3L154.474 1109.02L105.014 1109.02L105.014 1123.3L128.802 1123.3L105.016 1137.66L105.014 1154.78ZM104.217 1084.38C104.217 1090.28 105.743 1095.24 107.269 1098.23L119.706 1098.23C118.18 1095.38 116.873 1092.11 116.873 1086.93C116.873 1081.76 120.801 1074.25 129.744 1074.25C138.693 1074.25 142.91 1081.11 142.91 1087.74C142.91 1092.26 141.894 1095.38 140.51 1098.16L152.803 1098.16C154.114 1095.24 155.132 1091.6 155.132 1085.77C155.132 1071.12 145.528 1058.66 129.744 1058.66C113.962 1058.66 104.217 1069.81 104.217 1084.38ZM105.014 1032.71L105.014 1046.99L154.475 1046.99L154.475 1032.71L105.014 1032.71ZM105.014 971.198L105.014 985.484L134.69 985.484L134.69 985.699L105.014 1000.72L105.014 1018.13L154.475 1018.13L154.475 1003.85L124.944 1003.85L124.944 1003.63L154.475 988.764L154.475 971.198L105.014 971.198ZM154.475 913.4L105.016 913.4L105.016 927.688L124.365 927.688L124.365 942.339L105.016 942.339L105.016 956.625L154.475 956.625L154.475 942.339L135.564 942.339L135.564 927.688L154.475 927.688L154.475 913.4ZM104.217 888.768C104.217 894.674 105.743 899.629 107.269 902.62L119.706 902.62C118.18 899.777 116.873 896.495 116.873 891.323C116.873 886.149 120.801 878.641 129.744 878.641C138.693 878.641 142.91 885.491 142.91 892.12C142.91 896.64 141.894 899.777 140.51 902.542L152.803 902.542C154.114 899.629 155.132 895.986 155.132 890.154C155.132 875.504 145.528 863.038 129.744 863.038C113.962 863.038 104.217 874.192 104.217 888.768ZM105.014 818.73L105.014 852.909L116.289 852.909L116.289 833.013L124.289 833.013L124.289 852.257L135.273 852.257L135.273 833.013L143.203 833.013L143.203 852.909L154.474 852.909L154.474 818.73L105.014 818.73ZM105.014 782.803L105.014 797.082L142.91 797.082L142.91 809.402L154.474 809.402L154.474 770.413L142.91 770.413L142.91 782.804L105.014 782.804L105.014 782.803ZM116.509 740.748C116.509 734.408 121.597 731.203 129.744 731.203C137.896 731.203 142.98 734.408 142.98 740.748C142.98 747.158 137.896 750.149 129.744 750.149C121.597 750.149 116.509 747.158 116.509 740.748ZM103.853 740.748C103.853 755.544 113.233 765.455 129.744 765.455C146.256 765.455 155.64 755.544 155.64 740.748C155.64 726.022 146.256 715.895 129.744 715.895C113.233 715.895 103.853 726.022 103.853 740.748ZM131.639 680.109L143.931 680.109L143.931 685.866C143.931 689.73 140.946 691.991 137.818 691.991C134.69 691.991 131.639 689.73 131.639 685.866L131.639 680.109ZM105.014 665.821L105.014 680.109L122.394 680.109L122.394 683.754L105.014 692.355L105.014 708.462L120.292 699.353C121.89 698.404 123.343 697.239 123.779 696.582L124.069 696.656C126.037 701.031 129.744 707.226 138.185 707.227C147.057 707.227 154.475 700.154 154.475 688.565L154.475 665.822L105.014 665.822L105.014 665.821ZM105.014 629.893L105.014 644.181L142.91 644.181L142.91 656.495L154.474 656.495L154.474 617.504L142.91 617.504L142.91 629.895L105.014 629.895L105.014 629.893ZM105.014 615.681L130.547 598.917L154.474 615.462L154.474 598.044L131.711 584.196L154.474 584.196L154.474 569.911L105.014 569.911L105.014 584.196L128.802 584.196L105.016 598.553L105.014 615.681ZM105.014 522.687L105.014 556.864L116.289 556.864L116.289 536.969L124.289 536.969L124.289 556.21L135.273 556.21L135.273 536.969L143.203 536.969L143.203 556.864L154.474 556.864L154.474 522.687L105.014 522.687ZM105.014 483.4L105.014 515.395L116.724 515.395L116.724 497.687L154.475 497.687L154.475 483.4L105.014 483.4ZM105.014 436.174L105.014 470.359L116.289 470.359L116.289 450.46L124.289 450.46L124.289 469.701L135.273 469.701L135.273 450.46L143.203 450.46L143.203 470.359L154.474 470.359L154.474 436.174L105.014 436.174Z" fill="white"/>
<path d="M199.448 731.129L217.705 736.011L217.705 736.668L199.448 741.547L199.448 731.129ZM179.08 747.018L179.08 761.669L228.546 746.799L228.546 725.88L179.081 711.085L179.081 725.734L189.337 728.431L189.337 744.246L179.08 747.018ZM179.081 684.266L179.081 698.551L216.976 698.551L216.976 710.868L228.546 710.868L228.546 671.873L216.976 671.873L216.976 684.268L179.081 684.268L179.081 684.266ZM179.081 640.828L179.081 672.822L190.795 672.822L190.795 655.111L228.547 655.111L228.547 640.828L179.081 640.828ZM177.918 605.261C177.918 616.924 183.523 626.614 197.338 626.614L228.547 626.614L228.547 612.332L198.652 612.332C193.051 612.332 190.579 609.266 190.579 605.261C190.579 601.25 193.051 598.192 198.652 598.192L228.547 598.192L228.547 583.906L197.338 583.906C183.521 583.906 177.918 593.601 177.918 605.261ZM179.081 577.201L204.611 560.438L228.546 576.986L228.546 559.567L205.776 545.716L228.546 545.716L228.546 531.433L179.081 531.433L179.081 545.716L202.867 545.716L179.081 560.074L179.081 577.201ZM199.448 493.243L217.705 498.125L217.705 498.779L199.448 503.667L199.448 493.243ZM179.081 509.13L179.081 523.781L228.546 508.911L228.546 487.995L179.081 473.203L179.081 487.85L189.337 490.547L189.337 506.361L179.081 509.13ZM228.547 436.174L179.082 436.174L179.082 450.46L198.215 450.46L198.215 469.846L209.196 469.846L209.196 450.46L217.267 450.46L217.267 470.065L228.547 470.065L228.547 436.174Z" fill="white"/>
<path d="M30.9512 382.643L30.9512 36.221L376.684 36.221L376.684 382.645L30.9512 382.645L30.9512 382.643ZM34.2725 39.5526L34.2725 379.312L373.359 379.312L373.359 39.5526L34.2725 39.5526Z" fill="white"/>
<path d="M226.754 316.995L233.219 325.87C236.808 322.513 241.118 318.913 248.057 318.913C253.322 318.913 259.072 322.513 261.462 327.067C264.335 324.669 266.967 320.833 266.967 315.317C266.967 308.12 261.702 302.127 254.763 302.127C249.978 302.127 245.906 305.243 243.991 308.842C237.289 308.842 231.306 311.962 226.754 316.995ZM273.91 269.513L287.074 276.946L287.074 265.913C284.68 265.913 282.048 263.754 282.048 261.116C282.048 258.241 283.961 256.321 287.074 256.321L287.074 246.486C284.201 246.486 282.048 244.33 282.048 241.692C282.048 239.053 284.201 236.893 287.074 236.893L287.074 225.861L274.389 232.339C274.863 237.377 275.103 242.169 275.103 246.967C275.103 255.839 274.626 263.516 273.91 269.513ZM157.102 249.364C159.258 248.165 161.894 246.967 166.676 246.967C172.897 246.967 178.164 250.563 181.519 258.241C183.91 263.275 186.067 267.112 189.415 273.828C197.553 289.656 212.874 295.172 228.668 295.172C236.571 295.172 242.789 293.011 248.056 290.377C243.749 291.094 240.157 291.812 235.852 291.812C219.336 291.812 207.128 286.058 199.704 270.947C194.922 261.355 193.008 256.56 190.135 250.801C185.828 242.647 180.319 238.089 173.617 238.089C165.24 238.091 159.023 242.409 157.102 249.364ZM160.216 240.011C162.852 237.375 167.634 234.495 173.859 234.495C181.756 234.495 188.459 239.772 193.25 249.125C197.077 257.279 198.996 262.074 202.342 269.27C209.764 284.38 222.449 288.935 236.09 288.935C249.258 288.935 255.958 284.621 260.269 281.024C255.244 283.659 249.258 284.38 244.228 284.38C229.629 284.38 216.944 280.063 210.24 263.036C206.654 254.4 205.454 248.888 202.109 241.451C196.598 229.701 190.138 225.143 180.567 225.143C171.465 225.141 162.852 230.899 160.216 240.011ZM162.131 230.899C165.481 226.821 170.984 221.545 180.8 221.545C191.093 221.545 198.75 225.859 204.497 239.29C208.083 247.926 209.762 252.484 212.872 260.638C219.334 277.904 232.021 281.502 244.469 281.502C256.432 281.502 263.377 277.185 267.924 271.908C264.094 275.027 257.629 276.948 250.929 276.948C235.136 276.947 226.277 270.949 220.292 253.924C218.139 246.969 215.984 239.536 213.111 231.859C207.844 217.951 200.187 210.755 187.264 210.755C173.859 210.752 163.803 221.063 162.131 230.899ZM163.803 221.304C168.592 211.71 178.883 207.152 187.981 207.152C201.145 207.152 210.48 215.306 215.51 228.978C218.62 237.377 220.532 244.089 223.405 252.484C229.151 268.794 236.81 274.069 251.409 274.069C259.788 274.069 266.966 270.949 271.035 265.915C269.119 267.594 266.727 268.073 264.574 268.073C260.507 268.073 258.587 265.915 258.587 262.797C258.587 260.877 259.788 258.96 261.701 258.719C260.986 259.678 260.744 260.399 260.744 261.359C260.744 263.996 262.661 265.435 265.293 265.435C269.361 265.435 271.518 261.598 271.992 257.761C272.474 254.402 272.474 250.804 272.474 246.732C272.474 242.652 272.234 238.813 271.992 233.779C267.687 236.895 268.882 247.21 266.725 250.324C266.966 247.687 266.966 245.047 266.251 242.409C264.572 242.409 262.659 241.692 262.659 240.013C262.659 236.893 266.009 235.458 271.99 233.297L271.034 221.065C270.797 219.149 270.077 218.428 268.645 218.669L256.674 219.868C256.193 219.868 255.958 220.35 255.958 220.83C255.958 221.308 256.195 221.784 256.915 222.029C257.875 222.505 260.028 223.949 260.028 227.542C260.028 232.817 255.242 236.895 249.737 237.136C252.368 235.216 254.763 230.902 254.763 223.705C254.763 218.188 253.087 213.632 253.087 206.437C253.087 198.763 255.96 194.446 259.549 194.446C261.225 194.446 262.182 194.687 263.382 195.645C261.947 192.525 259.31 190.129 255.004 190.129C249.737 190.129 244.23 193.969 244.23 205.236C244.23 215.551 250.695 220.35 250.695 229.703C250.695 234.016 248.542 236.178 246.146 236.178C243.993 236.178 242.078 234.257 242.078 230.902C242.078 226.824 244.23 223.949 246.387 222.507C246.866 222.266 247.106 222.031 247.106 221.549C247.106 220.832 246.627 220.587 246.146 220.587L234.657 220.83C233.223 220.83 232.503 221.547 232.744 223.228C233.463 230.42 234.42 237.857 234.895 244.813C236.092 257.763 244.714 266.636 254.284 266.636C255.716 266.636 256.918 266.636 258.354 266.399C256.438 267.598 254.525 268.074 252.133 268.074C243.275 268.074 236.577 263.279 232.503 247.928C230.35 239.774 229.39 233.779 227.717 226.824C223.409 208.355 209.289 196.368 193.487 196.368C178.883 196.364 165.721 206.676 163.803 221.304ZM250.213 140.958C252.366 141.92 254.281 142.158 255.714 142.158C258.831 142.158 261.701 140.723 262.898 139.283C262.898 142.879 260.267 145.998 256.676 145.998C253.321 145.998 251.169 143.841 250.213 140.958ZM193.248 185.091L197.312 192.765C213.349 195.402 224.6 204.996 228.668 221.783C228.193 212.911 227.953 205.234 227.472 194.444C226.996 182.933 225.555 163.987 224.599 150.797C224.358 148.156 225.318 146.48 227.472 145.757C229.865 145.04 234.414 143.601 237.043 143.361C239.202 143.12 240.636 143.601 242.073 145.52C244.709 149.353 247.819 153.194 254.279 153.194C261.222 153.194 265.77 147.196 265.77 141.681C265.77 139.765 265.53 138.324 265.051 137.127C266.007 135.688 266.723 134.248 266.723 131.37C266.723 127.294 264.094 123.696 261.941 122.737C262.418 115.781 257.392 110.265 250.69 110.743C251.646 111.705 252.603 113.621 252.603 115.781C252.603 118.415 250.69 120.817 247.817 120.817C245.181 120.817 241.834 120.335 238.242 120.335C227.231 120.335 221.485 129.21 215.743 129.21C212.87 129.21 210.478 127.051 210.478 124.172C204.496 125.851 201.384 131.368 201.384 138.801C201.384 143.6 201.861 147.917 201.861 154.873C201.863 174.779 199.706 183.411 193.248 185.091ZM125.508 258.958L125.508 261.357C133.166 261.116 138.431 259.199 143.937 256.083C147.05 254.4 150.398 252.243 152.555 250.563C153.993 249.605 154.468 248.406 154.468 246.967C154.468 246.009 153.756 245.288 152.555 246.009C149.446 247.926 144.658 250.563 137.238 253.922C136.757 251.044 135.322 250.322 132.93 250.322C129.102 250.322 125.508 253.922 125.508 258.958ZM249.256 131.609C255.958 131.846 259.547 128.969 261.223 124.893C261.46 125.611 261.943 126.569 261.943 128.013C261.943 131.129 259.307 134.487 255.241 134.487C253.084 134.487 250.692 133.766 249.256 131.609ZM80.7525 285.339C82.904 284.38 85.0591 281.261 85.0591 277.424C85.0591 275.266 84.5818 273.828 84.1027 272.87C86.0192 273.107 88.1707 275.025 88.1707 278.868C88.1689 283.422 84.5818 285.819 80.7525 285.339ZM70.4559 283.899C72.1338 282.46 73.5693 280.062 73.5693 276.946C73.5693 273.105 71.8933 271.188 70.6964 270.228C73.5693 269.75 77.1582 272.149 77.1582 276.707C77.1582 281.502 73.8062 283.899 70.4559 283.899ZM184.629 113.384C188.703 115.06 191.568 118.897 192.528 123.451C193.968 124.413 195.161 125.612 196.121 126.813L230.106 118.659C232.498 117.697 234.89 116.98 238.244 116.98C241.836 116.98 245.425 117.698 247.338 117.698C249.014 117.698 249.491 116.739 249.491 115.781C249.491 115.06 249.491 114.582 249.254 114.342L248.294 114.342C242.789 114.342 238.484 110.984 238.484 105.467C238.484 99.9547 243.029 95.6341 248.294 95.6341C253.561 95.6341 257.873 99.9547 257.873 105.467C257.873 106.426 257.873 107.629 257.392 109.063C261.699 110.743 265.53 116.018 264.81 121.534C269.596 117.697 272.473 111.942 272.473 105.466C272.473 91.558 262.418 80.5254 248.294 80.5254C235.134 80.5254 224.6 91.3171 224.36 104.748L184.629 113.384ZM133.168 150.556C133.168 154.152 135.088 157.989 138.674 161.585C144.898 168.06 154.23 177.176 157.822 182.692C160.935 187.487 162.132 190.605 162.132 193.721C162.132 195.641 161.651 197.08 160.216 198.52L166.439 206.674C173.378 197.321 182.476 193.004 193.723 192.763C186.783 179.813 177.207 170.46 168.113 159.663C166.676 157.75 165.962 156.788 165.962 155.109C165.962 153.429 167.634 151.993 170.507 149.114C172.899 146.717 174.34 146.232 176.012 146.232C178.885 146.232 179.845 147.194 183.675 147.194C191.332 147.194 195.642 141.199 195.642 135.444C195.642 130.645 193.009 127.049 189.655 125.85C189.175 119.371 184.389 115.294 179.364 115.294C178.166 115.294 177.209 115.538 176.491 115.779C175.056 113.382 172.187 110.98 168.354 110.98C164.287 110.98 160.454 113.138 159.259 116.737C159.975 116.255 160.935 116.016 162.132 116.016C164.287 116.016 166.202 117.937 166.202 120.574C166.202 122.736 165.483 124.17 163.568 125.85C160.695 128.011 158.063 130.169 154.949 133.765C152.076 137.123 150.165 140.957 148.008 144.558C146.571 146.719 144.658 148.395 141.787 148.395C139.869 148.395 137.717 146.955 136.998 144.076C134.367 145.277 133.168 147.678 133.168 150.556ZM179.843 136.882C184.627 136.645 188.459 133.049 189.415 128.491C189.896 129.212 190.61 130.411 190.61 132.328C190.61 135.687 187.741 138.326 184.627 138.326C182.235 138.324 181.037 137.603 179.843 136.882ZM53.9435 163.505C55.135 162.547 56.3355 162.067 57.7728 162.067C60.6421 162.067 62.8009 164.466 62.8009 167.824C62.8009 173.096 57.0514 175.978 57.0514 182.935C57.0514 190.848 62.8009 194.685 62.8009 201.879C62.8009 205.478 60.6421 210.515 56.095 210.515C55.3754 210.515 54.6631 210.274 54.1785 209.797C54.1785 217.951 61.1194 223.705 72.6111 223.705C88.6462 223.705 95.108 223.226 103.964 222.987C104.204 229.221 107.316 235.216 117.128 234.257C115.694 232.582 114.976 230.661 114.976 228.504C114.976 225.625 117.128 223.466 120.241 223.466C121.68 223.466 123.354 223.466 125.025 223.707L125.745 251.766C127.182 249.129 130.055 247.212 133.401 247.212C135.795 247.212 137.475 248.17 138.428 250.091C143.933 247.449 148.241 245.292 152.311 242.654C154.463 241.216 156.618 239.538 156.618 236.179C156.862 228.743 154.703 213.636 152.071 205.958C150.158 200.205 145.849 194.688 136.036 194.688C126.945 194.688 110.904 197.804 85.7715 197.567C82.179 197.567 80.9839 196.605 80.5066 194.447C80.0257 192.527 79.5466 187.493 80.0257 184.373C80.2661 182.697 81.4667 181.257 85.0519 180.295C90.0763 179.096 95.1062 175.502 95.1062 168.308C95.1062 161.83 90.3186 156.076 83.139 157.034C81.219 153.915 78.111 152.476 75.2417 152.476C72.3688 152.476 69.9768 153.435 68.5358 154.632C66.8634 153.915 65.907 153.678 64.2292 153.678C58.2483 153.676 53.9435 158.951 53.9435 163.505ZM173.378 129.688C176.255 128.25 177.929 125.134 177.929 121.534C177.929 120.096 177.692 118.897 177.452 117.938C179.364 118.415 181.037 120.576 181.037 123.696C181.037 127.772 177.929 130.409 173.378 129.688ZM80.7525 171.659C82.904 170.701 85.0591 167.583 85.0591 163.745C85.0591 161.585 84.5818 160.149 84.1027 159.187C86.0192 159.428 88.1707 161.348 88.1707 165.185C88.1689 169.739 84.5818 172.138 80.7525 171.659ZM59.9261 151.274C61.3617 150.556 62.8027 150.312 64.2346 150.312C65.6683 150.312 66.8689 150.556 68.0676 151.033C70.2191 149.833 72.6147 149.116 75.2471 149.116C78.836 149.116 82.1844 150.795 84.3377 153.192L148.726 138.322C149.923 135.922 151.355 133.524 153.036 131.607C155.909 128.248 158.061 126.33 161.651 123.212C162.608 122.254 163.089 121.533 163.089 120.574C163.089 119.136 162.132 118.174 160.216 118.658L145.378 121.774L140.825 128.248L63.7555 146.234L59.9261 151.274ZM70.4559 170.221C72.1338 168.783 73.5693 166.384 73.5693 163.266C73.5693 159.429 71.8933 157.509 70.6964 156.551C73.5693 156.072 77.1582 158.471 77.1582 163.029C77.1582 167.824 73.8062 170.221 70.4559 170.221ZM52.5061 51.7446L63.7555 66.3732L140.825 84.366L145.378 90.837L207.128 105.228L221.487 102.109C222.207 98.5091 223.167 95.3913 224.601 92.7555L52.5061 51.7446ZM53.9435 277.183C55.135 276.225 56.3355 275.748 57.7728 275.748C60.6421 275.748 62.8008 278.145 62.8008 281.502C62.8008 286.779 57.0514 289.656 57.0514 296.612C57.0514 304.527 62.8008 308.362 62.8008 315.56C62.8008 319.159 60.6421 324.192 56.095 324.192C55.3754 324.192 54.6631 323.951 54.1785 323.475C54.1785 331.629 61.1194 337.382 72.6111 337.382C87.9284 337.382 104.92 335.947 121.917 334.266C122.873 338.58 127.184 342.658 132.685 342.658C134.602 342.658 136.757 341.942 138.672 340.741C136.994 339.542 135.558 337.382 134.602 333.788C133.166 328.75 132.45 322.515 132.45 317.957C132.45 307.641 133.166 304.286 134.602 299.491C141.064 299.25 146.332 295.174 149.923 291.337C147.531 297.332 146.334 299.969 146.334 309.563C146.334 340.261 166.916 359.207 190.373 359.207C207.37 359.207 215.266 348.415 221.012 338.58L214.55 329.471C209.524 340.5 202.107 347.697 192.047 347.697C181.037 347.697 173.138 338.826 173.138 328.515C173.138 317.478 181.037 308.846 191.811 308.846C199.945 308.846 205.931 312.683 211.677 319.875C217.419 327.071 224.36 338.103 230.822 344.101C234.177 347.219 239.444 349.855 243.51 349.614C245.427 353.69 249.493 356.81 254.762 356.81C261.701 356.81 266.966 350.098 266.966 342.902C266.966 338.582 264.333 333.79 261.46 331.39C259.788 335.707 254.042 339.784 248.056 339.784C243.029 339.784 238.725 336.67 235.136 333.069C229.627 327.553 225.559 320.359 219.095 312.442C211.196 302.848 201.863 297.091 191.332 297.091C176.732 297.091 163.089 308.364 163.089 326.112C163.089 331.87 164.287 336.424 166.441 339.783C159.74 334.025 156.387 323.237 156.387 311.964C156.387 302.129 157.822 295.415 163.089 288.223C167.873 281.745 179.124 276.708 187.502 276.949C184.389 271.674 181.519 265.437 179.124 260.163C175.535 252.723 171.706 250.326 165.24 250.326C156.622 250.326 149.923 256.324 144.898 258.962C138.433 262.558 132.687 263.757 126.708 264.239C112.105 265.678 105.406 274.072 105.406 288.938C105.406 295.658 105.88 304.529 106.357 308.125C99.6569 309.565 91.7614 311.245 85.7751 311.245C82.1826 311.245 80.9875 310.286 80.5102 308.125C80.0293 306.208 79.5502 301.17 80.0293 298.054C80.2697 296.379 81.4703 294.935 85.0555 293.978C90.0799 292.779 95.1098 289.183 95.1098 281.987C95.1098 275.509 90.3222 269.755 83.1427 270.714C81.2226 267.598 78.1146 266.156 75.2453 266.156C72.3724 266.156 69.9804 267.118 68.5395 268.317C66.8671 267.6 65.9106 267.355 64.2328 267.355C58.2483 267.35 53.9435 272.629 53.9435 277.183Z" fill="white"/>
</g>
<defs>
<clipPath id="clip0_32_138">
<rect width="1250" height="410" fill="white" transform="translate(410 3.05176e-05) rotate(90)"/>
</clipPath>
</defs>
</svg>
